<?xml version="1.0" encoding="UTF-8" standalone="no"?><!DOCTYPE svg PUBLIC "-//W3C//DTD SVG 1.1//EN" "http://www.w3.org/Graphics/SVG/1.1/DTD/svg11.dtd"><svg width="100%" height="100%" viewBox="0 0 803 232" version="1.1" xmlns="http://www.w3.org/2000/svg" xmlns:xlink="http://www.w3.org/1999/xlink" xml:space="preserve" style="fill-rule:evenodd;clip-rule:evenodd;stroke-linejoin:round;stroke-miterlimit:1.41421;"><g id="TentCSS-Logo"><path id="Flag" d="M195.134,19.361l-91.273,15.644l0,-31.289l91.273,15.645Z" style="fill:#0074d9;"/><g><rect id="Flag-Pole" x="102.433" y="1.83" width="5" height="56.852" style="fill:#f2f2f2;"/><g id="Text" transform="matrix(1,0,0,1,-334.836,-92.7341)"><text x="559.038px" y="277.949px" style="font-family:'GillSans-Light', 'Gill Sans', sans-serif;font-weight:300;font-size:144px;fill:none;">Tent</text><text x="824.609px" y="277.949px" style="font-family:'GillSans-Bold', 'Gill Sans', sans-serif;font-weight:700;font-size:144px;fill:none;">CSS</text><text x="559.038px" y="277.949px" style="font-family:'GillSans-Light', 'Gill Sans', sans-serif;font-weight:300;font-size:144px;fill:#f5eeeb;stroke:#f2f2f2;stroke-width:1px;">Tent</text><text x="824.609px" y="277.949px" style="font-family:'GillSans-Bold', 'Gill Sans', sans-serif;font-weight:700;font-size:144px;fill:#f5eeeb;stroke:#f2f2f2;stroke-width:1px;">CSS</text></g><path id="Tent" d="M196.206,217.473l-47.367,0l-43.906,-131.743l-43.906,131.743l-47.367,0l91.273,-171.291l91.273,171.291Z" style="fill:#f2f2f2;"/><path id="Outline" d="M799.095,227.473l-667.198,0l-23.26,-136.743l-7.451,0l-23.221,136.743l-74.305,0l0,-181.291l795.435,0l0,181.291Zm-785.435,-171.291l0,161.291l55.86,0l23.221,-136.743l24.339,0l23.26,136.743l648.755,0l0,-161.291l-775.435,0Z" style="fill:#f2f2f2;"/></g><path id="Canopy" d="M70.797,110.35l34.136,-24.62l34.136,24.62l-68.272,0Z" style="fill:#0074d9;"/><path id="Flaps" d="M148.839,217.473l-18.623,0l-25.283,-129.826l-25.282,129.826l-18.624,0l43.906,-131.743l43.906,131.743Z" style="fill:#0074d9;"/></g></svg>